<?xml version="1.0" standalone="no"?>
<!DOCTYPE svg PUBLIC "-//W3C//DTD SVG 20010904//EN"
 "http://www.w3.org/TR/2001/REC-SVG-20010904/DTD/svg10.dtd">
<svg version="1.0" xmlns="http://www.w3.org/2000/svg"
 width="512.000000pt" height="512.000000pt" viewBox="0 0 512.000000 512.000000"
 preserveAspectRatio="xMidYMid meet">
<g transform="translate(0.000000,512.000000) scale(0.100000,-0.100000)"
fill="#000000" stroke="none">
<path d="M3590 5026 c0 -3 66 -50 148 -105 301 -204 573 -459 812 -758 64 -81
90 -106 90 -88 0 11 -189 239 -275 332 -100 106 -355 338 -465 421 -77 57
-274 190 -295 199 -8 3 -15 3 -15 -1z"/>
<path d="M2945 4982 c9 -8 213 -62 232 -62 21 1 -31 21 -102 38 -129 32 -141
34 -130 24z"/>
<path d="M2874 4921 c8 -12 46 -21 46 -11 0 8 -24 20 -41 20 -6 0 -8 -4 -5 -9z"/>
<path d="M2196 4905 c-8 -9 -19 -16 -23 -16 -18 0 -65 -13 -188 -51 -315 -96
-634 -303 -925 -598 -111 -112 -207 -226 -199 -235 3 -2 27 23 54 57 136 165
451 440 643 562 153 96 361 186 537 231 79 20 91 21 100 8 15 -20 55 -8 55 16
0 17 -18 41 -31 41 -4 0 -14 -7 -23 -15z"/>
<path d="M2980 4890 c0 -23 45 -39 62 -22 16 16 -8 42 -38 42 -17 0 -24 -6
-24 -20z"/>
<path d="M1139 4778 c-77 -55 -149 -120 -149 -134 0 -8 9 -14 20 -14 11 0 20
5 20 10 0 6 0 13 1 18 1 13 33 44 94 90 77 58 81 62 69 62 -6 0 -31 -14 -55
-32z"/>
<path d="M3207 4757 c-7 -19 4 -34 36 -46 23 -9 29 -8 34 5 3 9 2 24 -4 33
-13 21 -59 26 -66 8z"/>
<path d="M2280 4745 c-168 -26 -355 -80 -427 -125 -18 -11 -43 -41 -57 -69
-19 -37 -34 -52 -59 -60 -43 -14 -213 -119 -292 -180 -84 -65 -199 -175 -187
-179 6 -2 55 35 108 82 116 103 218 175 334 236 74 40 88 51 114 98 24 42 41
57 81 76 64 30 171 62 294 87 127 27 425 37 554 19 111 -15 133 -23 172 -60
31 -30 131 -71 169 -69 15 0 -98 46 -121 49 -2 0 -21 16 -42 35 -56 51 -132
66 -361 70 -128 3 -214 0 -280 -10z"/>
<path d="M3440 4653 c161 -81 300 -167 383 -236 26 -22 50 -37 52 -35 8 7 -83
80 -176 143 -83 55 -341 188 -389 200 -14 3 45 -29 130 -72z"/>
<path d="M3820 4723 c0 -4 22 -22 48 -39 234 -154 454 -373 626 -623 65 -94
122 -173 127 -177 60 -37 -64 161 -201 321 -114 133 -310 319 -432 410 -116
87 -168 121 -168 108z"/>
<path d="M1065 4607 c-113 -97 -316 -304 -324 -330 -2 -7 59 51 135 129 77 77
182 176 234 219 52 43 97 79 99 81 2 2 -2 4 -10 4 -8 0 -68 -47 -134 -103z"/>
<path d="M3195 4673 c6 -5 39 -22 75 -38 127 -59 287 -149 383 -217 54 -39
100 -68 103 -66 5 6 -141 112 -230 166 -114 69 -368 189 -331 155z"/>
<path d="M880 4575 c-36 -36 -60 -65 -54 -65 13 0 129 118 123 124 -3 3 -34
-24 -69 -59z"/>
<path d="M3832 4628 c-21 -21 -14 -33 54 -87 81 -64 90 -68 103 -43 9 17 3 26
-42 64 -79 68 -101 80 -115 66z"/>
<path d="M3125 4594 c-8 -9 -15 -19 -15 -24 0 -5 33 -35 73 -67 101 -80 216
-200 254 -264 26 -44 118 -258 146 -341 4 -10 11 -18 17 -18 10 0 8 16 -7 75
-7 27 119 -97 158 -155 39 -59 45 -86 25 -109 -15 -17 -14 -23 28 -102 86
-161 126 -368 126 -646 l0 -156 -41 -95 c-22 -53 -56 -114 -75 -137 -45 -55
-86 -147 -91 -204 l-3 -46 13 40 c21 62 74 161 105 197 16 18 36 53 45 78 9
25 28 74 43 110 26 64 26 64 21 265 -7 269 -38 429 -120 608 -25 57 -29 72
-19 88 35 55 -5 127 -149 269 -77 77 -101 107 -122 158 -30 71 -32 82 -15 82
9 0 94 -61 224 -163 13 -10 24 -14 24 -8 0 10 -168 150 -223 185 -23 15 -30
16 -43 5 -13 -11 -17 -10 -25 4 -47 83 -211 249 -298 301 -63 37 -15 27 85
-17 160 -71 336 -189 478 -320 47 -44 66 -51 66 -24 0 16 -75 88 -165 159
-139 110 -289 197 -467 271 -34 14 -39 14 -53 1z"/>
<path d="M2266 4584 c-80 -15 -131 -33 -91 -33 11 0 38 4 60 9 22 5 94 14 161
20 239 22 494 -29 702 -140 39 -22 72 -35 72 -30 0 15 -126 80 -224 115 -148
53 -282 75 -454 74 -81 0 -182 -7 -226 -15z"/>
<path d="M2080 4559 c-36 -15 -60 -39 -60 -63 0 -17 3 -16 20 11 15 25 29 34
60 39 22 4 37 10 34 15 -7 11 -22 11 -54 -2z"/>
<path d="M1910 4452 c-93 -40 -182 -94 -280 -170 -97 -76 -296 -269 -287 -279
4 -3 51 36 104 88 174 168 317 275 457 340 36 17 68 35 72 40 7 12 8 12 -66
-19z"/>
<path d="M2390 4445 c-97 -22 -156 -46 -197 -79 -25 -21 -64 -37 -125 -53
-118 -29 -221 -80 -312 -154 -77 -62 -167 -161 -199 -221 -17 -31 -16 -31 15
7 167 202 305 298 498 346 47 12 93 26 103 31 12 6 38 5 75 -3 70 -14 76 -17
61 -35 -6 -7 -8 -25 -5 -38 11 -43 -28 -62 -141 -69 -137 -9 -193 -28 -241
-80 -194 -207 -238 -258 -286 -330 -30 -46 -73 -119 -95 -162 -70 -143 -74
-162 -79 -437 -4 -280 3 -325 63 -400 19 -24 42 -56 51 -72 24 -43 29 -124 11
-169 -21 -49 -51 -49 -99 1 l-37 37 -6 175 c-3 96 -13 246 -21 333 -11 123
-12 184 -4 275 15 177 63 354 127 472 l24 45 -25 -29 c-60 -71 -133 -324 -143
-496 -10 -169 -24 -162 -19 10 4 178 30 300 91 429 40 83 42 106 3 34 -106
-198 -151 -521 -99 -723 17 -71 22 -125 27 -320 l5 -235 -30 34 c-65 74 -123
233 -141 389 -18 156 18 371 105 637 73 225 208 450 349 583 54 51 70 82 43
82 -7 0 -46 -33 -87 -72 -189 -187 -310 -419 -400 -772 -75 -293 -75 -464 1
-693 22 -68 77 -159 134 -222 l37 -41 6 -148 c7 -201 -9 -322 -54 -432 -67
-159 -85 -226 -91 -344 -8 -153 12 -219 62 -204 6 2 10 45 10 103 1 55 4 117
9 138 5 24 5 37 -2 37 -14 0 -27 -99 -25 -192 1 -43 -2 -78 -6 -78 -35 0 -43
211 -12 332 11 42 40 120 64 174 67 149 72 177 72 434 -1 273 9 202 24 -185
12 -300 29 -457 61 -574 23 -81 68 -186 99 -230 28 -39 26 -48 -9 -66 l-29
-15 -20 45 c-11 26 -42 101 -68 168 l-48 122 1 179 c1 99 -2 173 -6 165 -15
-28 -30 -244 -21 -295 19 -100 139 -404 159 -404 5 0 25 11 44 23 l34 24 70
-70 c78 -78 197 -143 315 -171 104 -25 123 -17 24 10 -256 70 -409 207 -495
442 -49 135 -60 213 -85 622 -8 129 -19 269 -25 310 -5 41 -10 85 -10 98 l0
23 26 -20 c34 -27 76 -27 99 -1 l19 21 12 -23 c7 -13 20 -100 29 -193 22 -234
45 -381 62 -402 14 -17 14 -17 9 -1 -7 25 -33 236 -41 333 l-6 80 41 -105 c56
-145 83 -197 131 -253 40 -46 126 -113 135 -105 2 3 -22 28 -55 56 -74 65
-117 130 -169 257 -46 114 -95 277 -90 302 2 9 31 -40 65 -109 75 -154 134
-245 217 -335 34 -37 68 -77 74 -89 7 -13 14 -140 18 -337 4 -196 11 -325 18
-338 12 -22 116 -87 116 -72 0 5 -15 17 -32 27 -51 29 -78 58 -77 80 1 18 2
18 9 -4 12 -37 12 47 0 284 -6 109 -9 200 -7 202 2 2 28 -17 57 -42 30 -25 89
-62 130 -82 73 -36 78 -37 190 -37 99 0 122 3 167 24 63 28 119 86 200 207 34
50 80 112 102 138 23 26 41 50 41 54 -1 14 -120 -119 -161 -180 -109 -160
-197 -213 -354 -211 -97 1 -159 22 -247 86 -97 69 -124 103 -138 169 -10 50
-20 67 -79 130 -138 147 -230 323 -285 542 l-23 90 25 69 c22 66 24 80 21 271
-3 192 -3 203 19 243 24 45 66 78 178 138 l71 38 21 -21 c26 -26 78 -36 135
-28 151 23 288 171 318 345 10 53 9 82 -6 165 -9 56 -15 112 -13 126 5 41 41
52 153 46 127 -7 196 -25 315 -83 81 -40 109 -61 191 -142 81 -82 103 -111
147 -197 53 -105 82 -193 82 -252 l0 -35 -65 64 c-45 45 -63 69 -59 82 3 9 0
17 -6 17 -6 0 -46 14 -88 31 -90 35 -201 102 -274 165 -54 46 -150 166 -176
221 -9 18 -19 33 -24 33 -14 0 41 -102 88 -162 24 -31 44 -62 44 -70 0 -7 -16
-46 -35 -86 -39 -81 -109 -158 -175 -192 -55 -28 -205 -66 -297 -75 -107 -10
-94 -29 15 -21 102 8 224 36 283 66 87 45 175 151 210 252 15 46 16 47 33 29
16 -17 16 -22 3 -48 -59 -113 -187 -230 -307 -280 -36 -14 -69 -30 -74 -35
-16 -13 46 -9 96 6 31 9 51 10 63 3 29 -16 92 -1 134 32 49 39 104 121 133
198 12 32 23 60 24 62 2 2 36 -17 76 -43 40 -26 105 -59 145 -74 l73 -27 30
-95 c60 -197 64 -220 64 -345 -1 -149 -30 -320 -85 -505 -53 -176 -80 -244
-148 -365 -55 -98 -56 -102 -61 -197 -5 -91 -7 -99 -35 -128 -17 -18 -49 -43
-72 -57 -24 -14 -43 -31 -43 -38 0 -28 23 -26 68 5 l45 32 -7 -126 c-7 -119
-6 -126 12 -126 17 0 19 11 25 147 l6 146 39 41 c102 107 215 340 272 559 19
73 28 91 49 102 45 23 60 48 70 120 5 39 16 88 25 110 22 58 20 150 -8 246
-13 46 -29 143 -35 214 -41 433 -63 521 -163 652 -40 53 -105 109 -115 100 -2
-3 20 -30 49 -61 60 -61 106 -138 137 -235 38 -115 27 -124 -31 -26 -93 157
-235 286 -383 348 -96 40 -173 57 -285 63 -121 6 -146 -2 -172 -57 -19 -41
-76 -83 -133 -98 -22 -6 -98 -11 -170 -11 -91 -1 -142 -5 -170 -16 -84 -32
-78 -35 -73 42 11 158 99 234 272 234 97 1 147 14 172 45 l21 26 32 -37 c18
-20 42 -57 52 -82 11 -25 22 -43 24 -40 11 11 -29 98 -66 143 -22 26 -39 55
-37 64 5 23 71 33 193 28 226 -10 417 -87 598 -241 157 -135 243 -319 267
-575 5 -58 14 -155 20 -214 5 -59 14 -116 20 -127 6 -11 30 -33 55 -50 55 -38
66 -71 36 -108 -69 -87 -76 -102 -80 -190 -2 -53 3 -117 14 -174 33 -167 -1
-363 -108 -631 -64 -160 -111 -248 -167 -308 l-41 -44 4 125 c4 91 13 162 36
264 17 76 30 140 28 142 -4 4 -72 -167 -108 -273 -28 -83 -116 -466 -144 -622
-8 -46 -21 -94 -29 -107 -18 -27 -95 -57 -191 -74 -141 -25 -174 -38 -230 -90
l-51 -50 -35 36 c-49 51 -78 64 -203 85 -148 26 -237 59 -316 118 -183 137
-296 421 -335 843 -21 221 -29 268 -45 268 -5 0 -5 -14 0 -32 5 -17 16 -108
25 -202 21 -233 34 -309 81 -466 55 -181 118 -293 221 -391 91 -87 179 -125
353 -154 132 -22 155 -31 212 -82 l50 -44 49 50 c54 55 80 65 236 94 94 17
186 56 202 84 5 11 17 62 26 114 44 259 156 723 170 708 1 -2 -3 -33 -11 -69
-22 -105 -28 -256 -14 -340 7 -41 14 -86 14 -100 1 -14 5 -31 10 -38 15 -24 9
-223 -9 -287 -29 -108 -52 -128 -176 -150 -160 -28 -224 -65 -235 -137 -4 -21
-13 -43 -20 -49 -47 -39 -401 -29 -579 16 -158 40 -309 120 -435 231 -87 76
-99 83 -45 25 147 -157 371 -267 609 -300 104 -15 391 -13 436 2 25 9 37 20
44 42 22 75 29 85 71 105 24 12 79 28 122 36 43 8 94 19 115 24 88 24 130 134
132 345 l1 121 42 49 c95 111 218 402 263 619 32 155 22 145 -20 -20 -44 -179
-74 -260 -147 -409 -56 -113 -113 -199 -137 -208 -9 -4 -15 6 -20 31 -11 69
-7 81 53 153 126 149 258 480 292 731 11 83 13 86 40 92 23 4 34 20 73 102 79
164 89 202 90 347 1 124 0 129 -23 148 -13 11 -25 18 -26 17 -1 -2 3 -49 8
-105 8 -82 7 -117 -5 -181 -16 -78 -100 -296 -120 -308 -17 -11 -29 11 -48 85
-44 171 -35 250 35 332 24 29 47 64 50 80 8 37 -17 79 -65 109 -20 12 -43 32
-50 44 -8 13 -16 81 -21 184 -13 265 -47 409 -126 544 -43 73 -146 184 -233
250 -86 66 -244 142 -350 168 -106 27 -259 37 -338 21 -48 -9 -71 -9 -122 3
-34 8 -65 17 -68 20 -9 9 97 52 176 71 88 21 292 16 381 -9 30 -8 49 -10 44
-5 -39 39 -307 60 -423 34z m-605 -687 c-150 -163 -216 -275 -265 -454 l-30
-109 6 90 c10 158 45 272 126 410 59 101 146 213 187 241 l36 24 3 -65 3 -66
-66 -71z m655 83 c27 -184 -51 -350 -201 -426 -51 -26 -169 -47 -169 -30 0 4
20 29 44 55 24 26 55 69 69 96 25 50 53 151 44 160 -2 3 -10 -16 -16 -42 -28
-112 -127 -244 -182 -244 -26 0 -29 3 -29 33 0 25 -9 42 -36 68 -44 42 -68 88
-83 157 -17 83 -14 125 12 150 39 37 78 45 242 52 170 7 213 18 260 70 19 21
19 21 26 2 4 -11 13 -56 19 -101z m-552 -253 c10 -24 35 -63 55 -86 21 -24 37
-50 37 -56 0 -18 -27 -40 -80 -66 -25 -12 -82 -46 -126 -76 -49 -32 -105 -60
-140 -69 -33 -8 -71 -24 -86 -35 l-27 -20 6 38 c9 59 53 192 83 252 32 64 122
184 189 253 l46 48 12 -70 c6 -38 20 -89 31 -113z m931 -20 c-49 -126 -133
-218 -199 -218 -31 0 -24 12 30 48 54 37 100 89 149 170 18 28 35 52 37 52 2
0 -6 -24 -17 -52z m516 -371 c-6 -71 -4 -89 11 -118 17 -30 19 -59 18 -261 0
-231 -4 -258 -40 -258 -19 0 -18 46 2 80 22 36 14 56 -25 63 -17 4 -34 14 -38
23 -3 9 1 67 10 128 35 231 34 233 -22 441 l-30 110 60 -62 61 -63 -7 -83z
m-1640 -215 l0 -227 -34 -70 -33 -70 -12 46 c-8 29 -29 65 -54 95 -52 58 -75
130 -74 235 0 82 22 149 58 181 22 19 76 36 119 37 l30 1 0 -228z m1672 146
c-2 -13 -4 -3 -4 22 0 25 2 35 4 23 2 -13 2 -33 0 -45z m41 -278 l-1 -65 -7
55 c-5 30 -8 71 -8 90 0 32 1 33 8 10 4 -14 8 -54 8 -90z m-110 -170 c7 0 11
-4 7 -9 -3 -5 -16 -64 -30 -131 -45 -222 -145 -467 -242 -596 l-38 -51 3 86
c3 83 6 90 57 181 29 52 65 122 78 155 28 67 107 334 107 360 0 13 6 16 23 11
12 -3 28 -6 35 -6z m-1661 -162 c-3 -7 -5 -2 -5 12 0 14 2 19 5 13 2 -7 2 -19
0 -25z m-190 0 c-3 -8 -6 -5 -6 6 -1 11 2 17 5 13 3 -3 4 -12 1 -19z"/>
<path d="M583 4328 c-70 -85 -99 -128 -87 -127 12 0 157 189 151 195 -3 3 -32
-28 -64 -68z"/>
<path d="M755 4390 c-10 -17 12 -37 25 -24 8 8 6 15 -4 23 -10 9 -16 9 -21 1z"/>
<path d="M2917 4317 c-25 -11 -20 -12 50 -12 69 0 87 -4 155 -37 189 -90 328
-226 374 -367 18 -57 40 -59 29 -2 -22 120 -171 278 -345 366 -120 61 -204 77
-263 52z"/>
<path d="M4210 4302 c0 -5 6 -12 14 -15 22 -9 185 -203 258 -307 36 -52 87
-133 113 -180 68 -120 76 -132 81 -127 5 5 -14 42 -89 172 -56 99 -171 254
-269 364 -79 90 -108 115 -108 93z"/>
<path d="M2223 4283 c-20 -7 -15 -33 5 -33 24 0 32 8 25 26 -5 15 -10 16 -30
7z"/>
<path d="M4037 4274 c-4 -4 30 -46 76 -93 78 -82 160 -185 222 -278 15 -24 31
-43 35 -43 13 0 119 -235 154 -342 51 -155 96 -412 96 -550 0 -41 3 -48 20
-48 18 0 20 7 20 68 0 293 -131 733 -255 858 -23 23 -66 76 -94 117 -97 140
-260 325 -274 311z"/>
<path d="M1063 4127 c-147 -169 -283 -366 -353 -512 -100 -209 -220 -567 -220
-659 0 -20 -4 -27 -14 -23 -16 6 -36 -11 -36 -30 0 -7 9 -13 20 -13 18 0 19
-6 13 -119 -6 -122 2 -195 17 -156 4 11 11 58 15 105 29 350 75 535 201 798
l63 133 31 -16 c17 -9 35 -13 40 -10 19 12 10 33 -20 45 -16 7 -30 17 -30 23
0 43 234 353 349 461 23 23 28 32 20 43 -6 7 -14 13 -18 13 -3 0 -38 -37 -78
-83z"/>
<path d="M3935 4199 c-4 -6 31 -50 77 -97 93 -96 155 -175 211 -268 44 -73
137 -264 137 -281 0 -7 9 -13 20 -13 32 0 25 28 -46 170 -82 168 -165 289
-278 407 -86 90 -107 105 -121 82z"/>
<path d="M571 4041 c-33 -50 -62 -100 -66 -111 -3 -11 -17 -20 -33 -22 -33 -4
-40 -43 -8 -43 14 0 33 24 65 80 26 44 61 102 80 128 18 27 30 51 28 54 -3 3
-33 -36 -66 -86z"/>
<path d="M1185 4018 c-185 -233 -301 -469 -351 -717 -25 -127 -16 -382 20
-515 42 -160 93 -256 202 -378 30 -33 69 -90 86 -127 29 -58 33 -75 33 -147 0
-80 -1 -84 -62 -205 -60 -119 -79 -178 -85 -264 l-3 -40 -21 40 c-12 22 -34
78 -49 125 -24 75 -28 106 -34 267 -5 161 -8 184 -25 200 -10 10 -16 13 -12 6
3 -6 11 -37 17 -68 9 -50 8 -58 -7 -69 -15 -12 -16 -21 -5 -97 26 -182 69
-326 125 -419 8 -14 18 -43 23 -65 6 -32 9 -14 14 85 7 144 12 163 73 275 115
212 99 335 -68 530 -131 153 -195 315 -216 550 -13 130 -1 279 30 400 26 103
95 272 147 360 37 63 159 238 215 307 12 15 19 30 16 33 -3 3 -31 -27 -63 -67z"/>
<path d="M3290 4069 c0 -5 4 -8 9 -5 15 10 115 -107 153 -180 95 -181 138
-342 138 -522 0 -73 4 -111 10 -107 15 9 12 183 -5 274 -35 183 -129 391 -223
492 -50 55 -82 73 -82 48z"/>
<path d="M3920 4067 c0 -5 25 -37 56 -70 76 -83 194 -263 244 -370 61 -129
128 -343 152 -481 16 -95 19 -148 16 -246 -5 -127 4 -129 16 -3 25 250 -106
671 -293 946 -67 98 -190 242 -191 224z"/>
<path d="M3090 4032 c0 -12 19 -26 26 -19 2 2 -2 10 -11 17 -9 8 -15 8 -15 2z"/>
<path d="M722 3929 c-62 -86 -266 -479 -250 -479 4 0 47 78 94 173 48 94 120
220 160 280 41 59 74 110 74 112 0 18 -23 -7 -78 -86z"/>
<path d="M3880 3915 c131 -172 207 -362 241 -605 7 -49 16 -90 21 -90 12 0 10
14 -12 139 -46 257 -150 487 -283 629 -61 64 -45 30 33 -73z"/>
<path d="M1237 3884 c-36 -55 -84 -138 -108 -186 -28 -57 -49 -88 -60 -88 -17
0 -52 -33 -44 -42 3 -3 -6 -49 -20 -104 -35 -136 -34 -134 -25 -134 5 0 18 30
30 68 34 101 154 343 232 466 38 60 66 111 64 113 -3 3 -34 -39 -69 -93z"/>
<path d="M820 3959 c0 -5 5 -7 10 -4 6 3 10 8 10 11 0 2 -4 4 -10 4 -5 0 -10
-5 -10 -11z"/>
<path d="M4670 3943 c0 -16 53 -82 61 -77 5 3 -4 23 -22 45 -30 39 -39 46 -39
32z"/>
<path d="M4750 3851 c0 -5 9 -31 21 -58 50 -113 102 -267 135 -393 41 -157 43
-164 49 -159 6 7 -31 170 -61 268 -52 170 -144 389 -144 342z"/>
<path d="M419 3779 c-38 -76 -90 -202 -84 -207 7 -7 5 -11 63 122 51 119 64
168 21 85z"/>
<path d="M4677 3804 c-8 -9 51 -124 63 -124 17 0 11 28 -15 80 -24 48 -34 57
-48 44z"/>
<path d="M521 3756 c-7 -8 -11 -25 -9 -38 2 -18 9 -23 32 -23 36 0 56 27 40
53 -14 22 -48 27 -63 8z"/>
<path d="M3626 3663 c36 -108 64 -234 64 -286 0 -18 -7 -55 -16 -80 l-16 -47
38 -48 c21 -26 39 -49 41 -51 2 -2 5 -2 7 0 3 3 -12 27 -34 54 -39 49 -39 49
-23 84 24 55 18 151 -16 283 -34 129 -55 188 -69 188 -5 0 6 -44 24 -97z"/>
<path d="M1229 3654 c-6 -16 -34 -99 -61 -184 -28 -85 -56 -161 -62 -169 -9
-11 -8 -13 4 -9 14 4 144 377 135 386 -2 3 -10 -8 -16 -24z"/>
<path d="M3880 3677 c0 -3 11 -24 24 -48 78 -140 124 -313 133 -504 10 -223
-23 -350 -160 -625 -76 -153 -82 -169 -82 -227 0 -46 5 -67 18 -80 17 -17 17
-17 6 15 -23 66 -6 129 75 286 170 330 202 571 121 891 -24 94 -101 275 -124
289 -6 4 -11 5 -11 3z"/>
<path d="M4663 3618 c3 -7 22 -51 41 -97 38 -86 94 -267 119 -381 12 -54 15
-59 16 -29 3 82 -142 519 -172 519 -5 0 -7 -6 -4 -12z"/>
<path d="M780 3539 c0 -6 -16 -53 -35 -103 -57 -153 -109 -370 -169 -711 -15
-80 -21 -177 -18 -267 2 -42 5 -48 23 -48 21 0 21 4 17 76 -17 260 70 719 197
1047 4 10 3 17 -4 17 -6 0 -11 -5 -11 -11z"/>
<path d="M317 3523 c-8 -15 -46 -138 -60 -198 -26 -107 -27 -115 -18 -115 4 0
14 28 20 61 7 34 25 105 41 158 25 85 32 119 17 94z"/>
<path d="M4450 3513 c0 -6 9 -33 21 -60 11 -26 34 -95 50 -153 21 -77 28 -92
24 -56 -8 77 -95 323 -95 269z"/>
<path d="M3713 3500 c21 -75 51 -153 54 -143 6 17 -25 117 -43 139 -10 12 -14
14 -11 4z"/>
<path d="M3486 3434 c-7 -18 10 -44 28 -44 23 0 36 22 25 42 -12 22 -45 24
-53 2z"/>
<path d="M403 3392 c-12 -9 -46 -99 -67 -180 -32 -121 -84 -502 -69 -502 5 0
14 51 21 113 13 125 41 241 99 417 l38 115 39 -2 c45 -3 45 -2 -10 25 -22 11
-45 17 -51 14z"/>
<path d="M4650 3367 c0 -2 11 -35 24 -74 13 -39 30 -98 37 -130 7 -32 14 -50
16 -41 7 29 -57 248 -72 248 -3 0 -5 -1 -5 -3z"/>
<path d="M1884 3310 c-26 -6 -104 -46 -104 -53 0 -1 53 -2 117 -2 98 0 136 -5
226 -29 86 -23 110 -26 122 -16 37 30 -1 53 -130 78 -129 26 -192 32 -231 22z"/>
<path d="M2940 3309 c-105 -13 -221 -41 -236 -56 -10 -11 -11 -19 -4 -34 6
-10 14 -19 18 -19 4 0 60 14 126 30 132 33 229 39 294 16 23 -8 44 -11 47 -6
12 19 -128 83 -170 78 -5 0 -39 -4 -75 -9z"/>
<path d="M3813 3182 c-1 -109 -12 -209 -38 -362 -4 -24 -3 -30 3 -20 29 45 65
436 46 487 -6 14 -10 -23 -11 -105z"/>
<path d="M4233 3290 c19 -87 30 -205 31 -337 1 -84 4 -153 9 -153 4 0 7 66 7
146 0 149 -23 340 -42 359 -7 7 -9 2 -5 -15z"/>
<path d="M4862 3123 c5 -49 15 -131 23 -183 8 -52 17 -133 21 -180 7 -89 -9
-277 -28 -330 -8 -26 -8 -35 4 -47 13 -13 14 -24 2 -86 -10 -49 -11 -74 -3
-82 15 -15 26 9 39 84 6 36 18 69 26 75 22 17 36 159 38 371 1 194 -8 305 -25
305 -5 0 -6 -17 -2 -42 11 -57 10 -423 -1 -521 -7 -72 -9 -78 -29 -75 -17 2
-21 9 -20 28 24 276 24 299 -16 603 -12 87 -21 160 -21 162 0 3 -4 5 -8 5 -4
0 -4 -39 0 -87z"/>
<path d="M116 3159 c-11 -35 -15 -79 -7 -79 5 0 11 19 14 42 6 42 2 64 -7 37z"/>
<path d="M4437 3153 c-15 -14 -7 -43 12 -43 24 0 33 13 25 34 -6 16 -25 21
-37 9z"/>
<path d="M4108 3130 c-19 -15 -21 -22 -12 -37 6 -10 21 -20 34 -21 22 -4 22
-6 19 -115 -4 -99 -2 -112 13 -115 24 -5 31 32 32 167 l1 114 -32 13 c-28 12
-34 11 -55 -6z m52 -21 c0 -16 -31 -22 -43 -10 -9 9 -9 14 2 20 16 10 41 4 41
-10z"/>
<path d="M2880 3109 c-50 -9 -105 -61 -148 -138 -22 -40 -22 -41 -2 -41 11 0
20 3 20 8 0 10 49 62 59 62 4 0 13 -18 20 -39 16 -56 52 -81 113 -81 41 0 54
5 79 29 16 16 29 39 29 50 0 14 6 21 20 21 26 0 25 -6 -6 -47 -47 -62 -117
-79 -204 -48 -55 19 -60 19 -30 -5 38 -29 117 -44 165 -31 53 14 131 71 114
82 -10 6 -2 18 26 45 l40 37 -44 -7 c-30 -5 -59 -2 -93 10 -51 17 -181 16
-223 -1 -17 -7 -17 -4 5 19 37 41 73 56 133 56 46 0 63 -6 107 -35 58 -39 83
-38 35 1 -64 53 -131 69 -215 53z"/>
<path d="M1895 3091 c-42 -19 -90 -59 -81 -68 2 -3 26 9 51 27 64 44 144 52
208 21 79 -38 69 -50 -37 -44 -70 4 -111 1 -165 -12 -39 -9 -82 -14 -96 -11
-35 9 -31 -5 10 -32 20 -12 34 -29 33 -36 -4 -17 50 -62 96 -81 59 -25 133
-16 194 23 34 22 18 27 -28 8 -88 -35 -178 -12 -220 56 -20 33 -18 48 6 48 8
0 14 -10 14 -26 0 -15 12 -38 29 -55 26 -25 37 -29 86 -29 49 0 60 4 86 29 16
16 32 43 35 60 4 17 10 31 13 31 14 0 51 -41 51 -55 0 -9 10 -15 25 -15 l24 0
-28 48 c-15 26 -34 57 -42 70 -37 59 -180 82 -264 43z"/>
<path d="M2355 3080 c4 -19 13 -62 21 -95 l13 -60 -4 67 c-2 37 -11 80 -20 95
l-16 28 6 -35z"/>
<path d="M880 3079 c0 -16 5 -20 27 -17 17 2 29 10 31 21 3 13 -3 17 -27 17
-25 0 -31 -4 -31 -21z"/>
<path d="M2555 3028 c-24 -87 -35 -157 -34 -227 3 -133 15 -128 21 9 5 95 12
154 27 200 24 76 23 70 11 70 -5 0 -16 -24 -25 -52z"/>
<path d="M5024 2965 c7 -232 -17 -466 -75 -732 -58 -268 -142 -468 -291 -695
-156 -239 -219 -341 -214 -345 2 -3 39 48 82 114 43 65 111 168 151 230 86
131 179 319 223 451 36 107 92 351 115 502 21 133 32 511 16 560 -9 29 -10 13
-7 -85z"/>
<path d="M4734 2988 c14 -118 19 -494 7 -583 -23 -171 -34 -218 -53 -223 -19
-5 -34 -44 -23 -61 3 -6 13 -11 22 -11 13 0 15 -8 9 -46 -9 -70 -71 -246 -128
-367 -50 -105 -54 -125 -24 -114 35 14 158 307 196 465 10 46 10 55 -3 70 -14
15 -14 22 3 72 40 119 53 267 46 525 -8 297 -11 325 -38 325 -19 0 -20 -4 -14
-52z"/>
<path d="M93 3007 c-18 -19 -22 -40 -28 -157 -8 -169 14 -480 34 -480 4 0 3
30 -2 68 -5 37 -10 176 -11 309 -1 231 0 243 19 257 11 8 17 17 14 20 -3 3
-15 -4 -26 -17z"/>
<path d="M734 2932 c10 -125 60 -330 96 -391 16 -28 12 15 -5 56 -26 63 -64
224 -75 317 -12 114 -25 127 -16 18z"/>
<path d="M4557 2943 c-2 -5 -8 -29 -11 -55 -10 -64 -38 -95 -149 -164 -231
-144 -324 -253 -352 -414 -7 -37 8 -90 25 -90 6 0 6 9 -1 24 -27 59 25 195
111 289 29 32 98 87 154 124 55 36 124 81 151 99 28 18 58 46 68 63 21 36 33
116 19 125 -6 3 -13 3 -15 -1z"/>
<path d="M126 2825 c-10 -87 -2 -340 14 -475 16 -134 61 -360 72 -360 5 0 7 8
4 18 -10 35 -37 180 -52 287 -10 65 -19 212 -23 360 -5 219 -7 240 -15 170z"/>
<path d="M4634 2857 c-3 -8 -1 -32 4 -54 17 -76 -14 -113 -156 -189 -101 -54
-275 -185 -306 -231 -27 -38 -62 -140 -53 -150 3 -2 14 21 23 53 32 100 133
188 367 319 141 79 198 160 168 238 -11 28 -38 36 -47 14z"/>
<path d="M3682 2670 c-7 -25 -19 -153 -27 -284 -32 -502 -85 -701 -230 -866
-84 -95 -99 -133 -101 -260 l-3 -105 10 90 c11 117 30 164 92 232 164 177 223
344 247 693 5 80 10 204 10 276 0 72 5 156 11 188 13 71 7 96 -9 36z"/>
<path d="M256 2601 c-13 -83 15 -399 50 -571 21 -101 70 -251 90 -275 16 -20
16 -20 9 0 -4 11 -20 58 -36 104 -53 154 -87 377 -98 641 -6 134 -8 148 -15
101z"/>
<path d="M4538 2560 c-249 -125 -297 -184 -359 -433 -27 -108 -38 -135 -74
-184 -23 -32 -55 -89 -69 -127 -50 -126 -57 -181 -65 -501 -8 -315 -9 -324
-61 -424 -25 -51 -90 -123 -144 -163 -55 -40 -63 -35 -21 14 41 48 92 151 123
248 36 111 52 216 63 394 5 94 11 194 14 221 4 41 3 45 -5 21 -9 -27 -18 -115
-39 -371 -18 -206 -82 -397 -171 -504 -71 -86 -81 -103 -69 -117 7 -9 -19 -26
-106 -69 -64 -32 -114 -59 -111 -62 2 -3 47 15 99 40 266 126 413 279 453 469
12 58 14 112 8 273 -11 331 26 500 147 660 32 43 43 70 64 163 53 234 88 282
294 406 123 74 154 96 134 96 -4 0 -52 -23 -105 -50z"/>
<path d="M725 2564 c-19 -20 -16 -43 8 -58 37 -23 77 35 41 61 -23 17 -29 16
-49 -3z"/>
<path d="M2283 2528 c-43 -47 -54 -98 -32 -139 9 -17 17 -19 53 -14 31 5 52 2
74 -9 39 -20 79 -20 125 -1 28 12 42 12 61 4 32 -15 70 7 80 45 7 29 -17 96
-34 96 -7 0 -8 -6 0 -19 22 -42 4 -119 -22 -93 -18 18 -52 15 -102 -10 l-45
-21 -51 26 c-60 31 -85 34 -99 10 -9 -17 -10 -17 -16 0 -11 28 4 84 31 117 31
36 9 43 -23 8z"/>
<path d="M1115 2520 c-3 -5 0 -10 9 -10 55 0 127 -141 148 -290 17 -118 1
-191 -78 -367 -74 -166 -94 -234 -93 -313 2 -104 15 -111 22 -10 8 114 20 155
92 315 73 164 89 228 82 335 -6 91 -39 203 -81 274 -21 35 -39 51 -88 73 -4 2
-9 -1 -13 -7z"/>
<path d="M4540 2475 c0 -8 7 -15 15 -15 8 0 15 7 15 15 0 8 -7 15 -15 15 -8 0
-15 -7 -15 -15z"/>
<path d="M3942 2406 c-64 -70 -67 -125 -12 -213 41 -64 38 -83 -16 -135 -67
-63 -82 -100 -93 -220 -10 -117 -23 -154 -82 -238 -39 -56 -69 -80 -55 -44 14
36 45 216 51 299 8 100 17 129 48 164 20 21 20 23 3 20 -42 -8 -56 -48 -71
-200 -14 -145 -47 -285 -78 -333 -9 -14 -45 -44 -79 -67 -115 -76 -149 -121
-163 -209 -13 -86 -25 -109 -93 -171 -51 -47 -59 -57 -34 -44 81 40 151 132
152 198 0 39 26 97 58 130 15 16 68 57 117 92 128 90 200 169 230 254 8 22 19
87 25 143 14 126 24 150 89 213 65 62 66 87 11 169 -22 32 -40 67 -40 78 0 27
34 89 64 117 14 14 26 28 26 33 0 18 -19 6 -58 -36z"/>
<path d="M3601 2424 c-10 -96 -47 -341 -62 -413 -25 -112 -79 -271 -120 -354
-17 -32 -25 -56 -19 -52 35 22 122 254 158 425 24 111 56 362 49 387 -3 10 -5
13 -6 7z"/>
<path d="M4592 2395 c0 -16 2 -22 5 -12 2 9 2 23 0 30 -3 6 -5 -1 -5 -18z"/>
<path d="M4409 2375 c-51 -38 -82 -97 -93 -175 -8 -55 8 -34 19 25 11 66 41
111 95 146 27 18 50 34 50 36 0 12 -32 -3 -71 -32z"/>
<path d="M634 2381 c4 -6 41 -36 81 -66 88 -65 115 -110 123 -202 3 -35 9 -66
15 -70 6 -4 8 15 3 55 -14 120 -41 166 -138 234 -85 59 -93 64 -84 49z"/>
<path d="M424 2283 c4 -32 12 -82 17 -112 10 -46 9 -55 -5 -63 -20 -11 -21
-36 -2 -57 7 -9 19 -45 26 -81 21 -107 87 -298 144 -415 55 -116 75 -141 102
-131 15 6 15 8 1 24 -50 56 -153 306 -190 462 -38 156 -42 183 -27 178 7 -2
25 -46 40 -98 62 -222 164 -432 304 -625 94 -130 253 -311 264 -301 2 3 -26
38 -63 78 -138 149 -236 296 -335 501 -61 126 -139 335 -170 455 -9 35 -15 42
-35 42 -32 0 -35 6 -48 110 -6 50 -15 90 -20 90 -5 0 -6 -25 -3 -57z"/>
<path d="M4437 2314 c-16 -16 -7 -44 14 -44 15 0 20 5 17 22 -3 22 -19 33 -31
22z"/>
<path d="M4535 2275 c-23 -128 -92 -334 -170 -505 -47 -102 -58 -136 -66 -208
-12 -115 -17 -137 -45 -201 -28 -63 -31 -88 -6 -46 35 58 54 120 68 228 12 93
22 126 70 235 89 201 176 483 161 524 -2 7 -8 -5 -12 -27z"/>
<path d="M4601 2240 c-7 -34 -18 -79 -26 -100 -8 -22 -10 -40 -6 -40 9 0 37
92 47 158 10 64 -2 50 -15 -18z"/>
<path d="M661 2276 c-18 -22 4 -58 32 -54 31 4 32 62 1 66 -11 2 -26 -4 -33
-12z"/>
<path d="M1001 2163 c0 -62 3 -113 7 -113 4 0 6 44 4 98 -5 139 -9 145 -11 15z"/>
<path d="M2281 2255 c-50 -22 -171 -115 -171 -130 0 -8 16 -17 38 -20 57 -10
59 -11 66 -48 8 -41 47 -84 96 -105 19 -8 76 -17 126 -20 123 -6 190 13 250
73 57 57 58 80 1 28 -63 -58 -127 -77 -241 -71 -107 6 -179 32 -198 73 -9 21
-9 29 3 40 12 12 28 13 99 3 98 -13 229 -4 257 18 16 13 12 13 -37 7 -96 -14
-330 -1 -330 17 0 13 104 20 145 10 22 -6 70 -7 107 -4 39 4 100 1 146 -6 78
-13 132 -9 132 10 0 6 -16 10 -36 10 -20 0 -62 6 -93 14 -82 21 -378 15 -444
-9 -26 -9 -50 -15 -53 -13 -2 3 13 17 33 31 21 14 58 40 82 56 48 34 94 39
151 20 27 -10 42 -9 82 6 63 22 103 12 172 -45 63 -52 85 -51 26 1 -71 64 -94
73 -164 64 -67 -8 -87 -8 -161 0 -33 3 -61 0 -84 -10z"/>
<path d="M630 2168 c0 -9 16 -38 36 -64 25 -32 44 -74 60 -133 36 -134 95
-266 184 -421 21 -36 71 -128 113 -205 41 -77 111 -198 155 -268 45 -71 89
-146 99 -168 9 -21 20 -39 24 -39 15 0 -13 59 -77 161 -35 57 -90 150 -121
207 -32 56 -103 182 -157 280 -110 197 -168 325 -202 451 -13 46 -30 93 -39
105 -9 12 -29 41 -45 65 -17 25 -30 38 -30 29z"/>
<path d="M4810 2099 c0 -33 -55 -188 -110 -311 -27 -62 -48 -114 -45 -116 10
-11 117 233 154 352 23 76 26 96 11 96 -5 0 -10 -9 -10 -21z"/>
<path d="M4280 2088 c0 -3 -7 -43 -16 -89 -18 -98 -51 -162 -94 -180 -16 -8
-32 -20 -35 -28 -12 -30 -25 -203 -25 -329 0 -129 21 -272 39 -272 5 0 2 26
-5 58 -18 77 -17 105 5 144 33 57 79 182 95 261 18 87 19 97 8 97 -4 0 -13
-34 -19 -75 -12 -75 -59 -205 -92 -258 -18 -28 -18 -27 -14 90 3 105 19 274
26 278 33 16 84 67 97 99 20 46 46 193 36 203 -3 3 -6 4 -6 1z"/>
<path d="M4552 1968 c-32 -87 -44 -129 -39 -134 2 -3 19 37 36 87 34 97 37
138 3 47z"/>
<path d="M1025 1945 c3 -27 10 -54 15 -59 11 -11 4 37 -12 84 -5 17 -6 9 -3
-25z"/>
<path d="M1258 1845 c-3 -6 -11 -30 -18 -55 -7 -25 -28 -79 -47 -120 -49 -105
-53 -171 -18 -275 34 -103 102 -243 162 -331 25 -38 60 -96 77 -129 73 -145
241 -258 470 -315 124 -31 146 -35 146 -22 0 4 -55 19 -122 34 -199 45 -362
136 -432 242 -20 30 -36 59 -36 65 0 6 26 -7 58 -28 90 -62 255 -143 395 -194
139 -51 170 -57 165 -31 -2 11 -40 29 -108 53 -200 71 -365 153 -486 242 -76
56 -151 176 -227 364 -59 146 -64 177 -36 251 42 113 83 291 57 249z"/>
<path d="M3925 1820 c-4 -17 -5 -34 -2 -36 2 -3 7 10 11 27 8 42 0 50 -9 9z"/>
<path d="M310 1826 c0 -14 37 -116 45 -125 9 -9 25 12 17 22 -5 7 -17 34 -27
60 -19 49 -35 70 -35 43z"/>
<path d="M4076 1743 c-64 -206 -65 -540 -1 -593 19 -16 19 -3 -1 51 -22 61
-30 266 -14 382 7 51 22 125 35 165 13 39 19 72 14 72 -4 0 -19 -35 -33 -77z"/>
<path d="M4457 1705 c-15 -30 -25 -55 -22 -55 7 0 57 101 53 106 -2 2 -16 -21
-31 -51z"/>
<path d="M3896 1723 c-122 -409 -146 -462 -235 -507 -36 -19 -39 -26 -11 -26
31 0 93 63 129 129 25 48 95 267 125 394 7 30 1 38 -8 10z"/>
<path d="M400 1661 c0 -22 71 -185 127 -291 104 -196 252 -400 417 -575 41
-44 78 -76 82 -72 4 4 -28 44 -72 90 -206 212 -379 472 -495 740 -47 109 -59
130 -59 108z"/>
<path d="M4396 1525 c9 -48 -28 -159 -78 -237 -44 -67 -45 -86 -3 -36 38 45
85 153 92 211 6 52 11 55 43 29 l23 -19 -19 -49 c-21 -54 -127 -234 -176 -298
-18 -23 -77 -87 -131 -143 -91 -93 -109 -123 -73 -123 24 0 222 215 285 310
65 97 161 279 161 304 0 17 -91 86 -114 86 -14 0 -16 -6 -10 -35z"/>
<path d="M2916 1418 c-22 -142 -29 -175 -42 -199 -16 -32 -19 -64 -2 -34 6 11
19 29 29 40 19 22 39 114 39 182 0 50 -17 58 -24 11z"/>
<path d="M736 1411 c-10 -16 5 -41 26 -41 14 0 19 6 16 22 -3 24 -32 36 -42
19z"/>
<path d="M3672 1355 c-17 -24 -56 -61 -87 -81 -50 -33 -57 -43 -71 -93 -23
-79 -45 -118 -112 -203 -32 -40 -65 -88 -72 -107 -16 -40 -18 -127 -4 -141 7
-7 9 6 6 43 -5 67 17 120 82 196 52 59 85 119 111 199 13 38 28 60 54 79 58
43 102 86 118 116 23 45 10 41 -25 -8z"/>
<path d="M721 1358 c51 -98 212 -300 325 -408 101 -96 136 -121 154 -110 8 5
12 10 10 12 -3 2 -32 24 -65 48 -105 77 -255 236 -340 363 -43 64 -82 117 -87
117 -5 0 -3 -10 3 -22z"/>
<path d="M3835 1279 c-12 -36 -26 -56 -51 -72 -21 -13 -38 -35 -43 -54 -5 -17
-21 -48 -36 -68 -15 -19 -25 -38 -22 -41 3 -3 20 15 39 40 18 25 41 45 51 46
10 0 22 12 28 28 5 15 19 45 29 67 20 42 36 105 27 105 -3 0 -13 -23 -22 -51z"/>
<path d="M1410 1251 c0 -19 89 -140 153 -208 64 -67 172 -152 181 -142 3 2
-27 29 -66 59 -76 60 -172 165 -225 248 -33 51 -43 61 -43 43z"/>
<path d="M4581 1194 c-18 -27 -49 -70 -68 -96 -19 -27 -30 -48 -25 -48 14 0
134 169 129 183 -2 6 -18 -12 -36 -39z"/>
<path d="M4622 1077 c-44 -63 -109 -144 -144 -181 -68 -71 -73 -89 -9 -30 64
57 251 308 239 320 -3 2 -42 -47 -86 -109z"/>
<path d="M4157 1134 c-11 -11 -8 -52 4 -59 5 -4 21 -4 35 -1 20 5 25 12 22 34
-2 20 -9 28 -28 30 -14 2 -29 0 -33 -4z"/>
<path d="M3587 1093 c-15 -20 -24 -39 -21 -42 5 -6 35 28 55 62 18 31 -5 17
-34 -20z"/>
<path d="M4350 1030 c-27 -27 -25 -46 4 -65 19 -13 29 -14 45 -5 12 6 21 17
21 25 0 7 3 21 6 30 4 9 3 15 -2 13 -5 -1 -19 3 -31 10 -19 11 -25 10 -43 -8z"/>
<path d="M3660 901 c-99 -99 -209 -175 -307 -209 -31 -10 -41 -18 -30 -20 25
-5 157 59 231 112 63 45 206 188 206 206 0 14 6 19 -100 -89z"/>
<path d="M3226 909 c-21 -12 -66 -27 -100 -34 -53 -12 -56 -14 -24 -14 40 -1
131 29 164 54 28 21 5 17 -40 -6z"/>
<path d="M929 882 c13 -25 118 -122 131 -122 19 0 8 13 -61 78 -68 64 -87 75
-70 44z"/>
<path d="M2911 829 c-19 -72 -53 -107 -119 -119 -138 -25 -464 -22 -636 7 -34
5 -38 4 -34 -13 4 -25 96 -41 239 -43 164 -2 162 -1 226 -98 31 -46 53 -87 49
-91 -13 -12 -395 -7 -481 7 -86 14 -236 56 -324 90 -69 26 -81 19 -15 -10 187
-80 354 -109 634 -109 l207 0 99 -136 c113 -156 137 -184 159 -184 26 0 17 18
-58 118 -41 53 -119 165 -175 248 -112 169 -112 164 -11 164 68 0 160 19 195
41 34 21 59 71 70 139 9 58 -10 50 -25 -11z"/>
<path d="M3654 760 c-81 -98 -179 -161 -329 -210 -38 -13 -64 -25 -58 -27 22
-8 165 45 233 85 66 39 136 101 184 165 47 62 24 52 -30 -13z"/>
<path d="M4093 731 c-81 -87 -134 -161 -115 -161 6 0 14 10 17 21 4 12 49 66
101 120 52 54 94 100 94 103 0 16 -22 -3 -97 -83z"/>
<path d="M4189 697 c-93 -90 -127 -127 -116 -127 3 0 57 49 119 110 62 60 109
109 103 109 -5 0 -53 -41 -106 -92z"/>
<path d="M1431 692 c6 -14 112 -103 117 -97 3 3 -17 24 -43 47 -54 48 -79 66
-74 50z"/>
<path d="M1066 662 c-12 -20 219 -201 369 -290 73 -43 247 -122 268 -122 7 1
-47 29 -120 64 -179 87 -339 195 -469 319 -24 22 -44 35 -48 29z"/>
<path d="M1230 632 c0 -19 245 -190 256 -179 3 3 -39 35 -93 71 -54 37 -113
78 -130 93 -18 14 -33 21 -33 15z"/>
<path d="M2679 584 c-17 -21 0 -49 32 -49 27 0 37 28 19 50 -16 19 -34 19 -51
-1z"/>
<path d="M2192 563 c2 -22 8 -28 28 -28 20 0 25 5 25 25 0 20 -6 26 -28 28
-26 3 -28 1 -25 -25z"/>
<path d="M1734 531 c20 -31 348 -159 379 -148 14 5 21 3 -118 47 -83 27 -143
52 -259 108 -5 3 -6 -1 -2 -7z"/>
<path d="M3985 483 c-150 -119 -406 -278 -572 -354 -70 -33 -109 -59 -88 -59
4 0 78 36 166 81 169 86 350 200 489 307 108 83 107 82 90 82 -8 -1 -46 -26
-85 -57z"/>
<path d="M3115 513 c-11 -2 -76 -17 -145 -33 -69 -15 -142 -31 -162 -35 -21
-3 -38 -10 -38 -14 0 -12 382 68 398 83 6 7 -22 6 -53 -1z"/>
<path d="M2200 331 c0 -15 10 -20 50 -26 52 -7 70 -2 70 20 0 17 -23 25 -76
25 -37 0 -44 -3 -44 -19z"/>
<path d="M2382 338 c-28 -28 -1 -75 38 -63 14 4 20 15 20 35 0 36 -33 53 -58
28z"/>
<path d="M3020 15 c0 -8 5 -15 10 -15 6 0 10 7 10 15 0 8 -4 15 -10 15 -5 0
-10 -7 -10 -15z"/>
</g>
</svg>